<?xml version="1.0" encoding="UTF-8"?>
<svg id="Layer_1" data-name="Layer 1" xmlns="http://www.w3.org/2000/svg" viewBox="0 0 40.7081219 16">
  <defs>
    <style>
      .cls-1 {
        fill: #f4f4f4;
      }

      .cls-2 {
        fill: #99c34e;
      }

      .cls-3 {
        fill: #585a57;
      }
    </style>
  </defs>
  <path class="cls-2" d="M29.5916264,12.3936909c.9241691.6998258,2.0743897,1.1159041,3.3202618,1.1159041,1.3057084,0,2.5056856-.4572542,3.4508713-1.218847l.2505044.2502884c-1.0101664.8246493-2.2987198,1.3205136-3.7013757,1.3205136-1.3430291,0-2.5809685-.4551139-3.5705502-1.2175642l.2502884-.250295ZM36.52726,3.8475848c-.9683492-.8443831-2.2328817-1.3574023-3.6153718-1.3574023-1.3198656,0-2.5327107.4669083-3.4826155,1.2437319l-.2498597-.250079c1.0144568-.8398734,2.3154526-1.3453854,3.7324752-1.3453854,1.479647,0,2.8318983.5522643,3.8645868,1.4599198l-.249215.249215Z"/>
  <path class="cls-2" d="M30.4534917,11.5299864c.6972535.4866421,1.5437769.7731779,2.4565769.7731779.9687746,0,1.8633397-.3219256,2.5833247-.8641103l.2663765.2661605c-.7899074.6088868-1.7777678.9719883-2.8497013.9719883-1.0163909,0-1.9568575-.3264222-2.7248843-.879125l.2683074-.2680914ZM35.6709777,4.7024533c-.7478676-.6271217-1.7108497-1.0056633-2.7609091-1.0056633-.9870095,0-1.8970148.3347935-2.6240817.8960705l-.2659445-.2663765c.7959093-.6277632,1.7996418-1.003739,2.8900262-1.003739,1.1532183,0,2.2094957.420372,3.0257802,1.1146213l-.2648711.2650871Z"/>
  <path class="cls-1" d="M29.4151875,3.7290709c-1.2398702,1.0110239-2.033636,2.5498657-2.033636,4.2708015,0,1.7996418.8677593,3.4002572,2.2060693,4.406346l-.2502884.2505044c-1.4011537-1.0719335-2.3075166-2.7602676-2.3075166-4.6568504,0-1.8178768.8321566-3.4450853,2.1352927-4.5208805l.250079.250079ZM36.5757992,12.5544213l-.2505044-.2502884c1.2641071-1.0103824,2.075882-2.5638135,2.075882-4.3042605,0-1.689833-.7652385-3.2033711-1.9667146-4.2150429l.249215-.249215c1.2647485,1.0760111,2.0692386,2.677484,2.0692386,4.4642579,0,1.837172-.850169,3.4789633-2.1771166,4.554549"/>
  <path class="cls-1" d="M37.1946543,7.999892c0-1.3374591-.6133899-2.5344321-1.5737997-3.3241235l.2655191-.2653031c1.0275374.8585403,1.6825417,2.1488086,1.6825417,3.5894266,0,1.5111753-.720849,2.8563512-1.8361051,3.7118807l-.2661605-.2663765c1.0481286-.7853977,1.7280046-2.0377038,1.7280046-3.4455042M30.0093803,4.3201744l.2663765.2661605c-1.0251811.7873286-1.6874767,2.0241945-1.6874767,3.4135571,0,1.4676366.7390774,2.7654122,1.8639877,3.5422357l-.2683074.2683074c-1.1911837-.8486702-1.9697188-2.239957-1.9697188-3.8105431,0-1.4923055.7034715-2.8228987,1.7951387-3.6797176"/>
  <path class="cls-3" d="M7.7175833,7.8200365c.192383,0,.3474454.0006414.5020822,0,.510015-.0019308.7931211-.250295.8604646-.7536601.0375334-.2801018-.0945814-.4701286-.3691067-.4900718-.2402121-.017587-.4827804-.0036457-.731354-.0036457-.0885795.4210069-.1717951.8173579-.2620861,1.2473775M9.2585719,8.2097311c.4047093.1799406.4754858.5323211.3613866.9443217-.0742062.2680914.1108822.3300744.3086258.4055733-.0480418.2256261-.0941527.4435289-.1441253.6792346-.2498597,0-.484924.011585-.7186989-.0025723-.4205814-.0250943-.632911-.2657351-.6061018-.6850271.0120104-.1902362.0561938-.3785481.0778551-.5683524.0334591-.2925442-.1168874-.4660509-.4111465-.4752731-.1569932-.0051511-.3139863-.0008574-.4709827.0012829-.0244496,0-.0491119.011801-.0922219.0231635-.0664861.3157077-.1334043.6357025-.2046062.9741417.104877.0208006.1859458.0366728.3054088.0600522-.0433227.2153305-.0870773.4310865-.1319021.6554297h-1.8144405c.0366728-.192599.0596235-.3794056.1140992-.5561325.0171582-.0557651.122248-.0823582.184231-.1265383.0898656-.0641299.2372078-.1183896.2562969-.2007478.2069657-.8995002.393985-1.8035035.5846532-2.7064334.0083648-.040109-.0025755-.0838571-.0051478-.1439093-.1070206-.0132998-.206753-.0261677-.3367211-.0426812.0471811-.2241273.0926506-.4398832.1389775-.6569351.8917801,0,1.7631818-.0205847,2.6328719.0092222.3952744.0135158.7615929.1891694.9027172.6026689.1614962.470986.0634819.9256679-.264017,1.2941299-.1788705.2016052-.4315184.3375817-.6670114.5153821"/>
  <path class="cls-3" d="M21.9367441,6.4788924c-.1106695-.0105116-.1771556-.0167295-.2710956-.0255197.0201625-.1138865.0497599-.220907.0566225-.329433.017371-.2736679.1323308-.380263.4268026-.3596718.4407406.0313122.8859876.0083648,1.3799178.0083648-.0521161.2412822-.0982271.4546819-.1512039.7004672-.3609579-.108094-.5391837.141553-.7401442.357957-.278603.2998356-.561493.5966669-.8512457.8859909-.096725.0962995-.1398349.3493762-.0789253.4662604.0845018.1617122.1569932.3300744.2294878.4975791.1816587.4186506.3946297.8388066.9571929.8473808-.0699191.3161331-.0435387.4255165-.1053057.7041195-.8081358.0304548-1.2107015-.0752829-1.5643681-.7470101-.1737227-.3305064-.3000483-.6854591-.4688392-1.0189632-.0383909-.0761403-.1614962-.1471295-.2470715-.1490604-.0574799-.0012829-.1514199.1151759-.1707217.1932405-.0806401.3268607-.1391935.6590754-.2086806,1.0039485.1207458.0171615.212971.0302454.3274989.0465429-.0469684.2234793-.0926506.4398832-.1389775.6603648h-1.8322435c.0373175-.1921736.0598362-.374261.1140992-.5462689.0180157-.0579054.1164587-.089859.1765109-.1355445.0932953-.0707732.2477162-.1286852.2680914-.2172613.2069657-.889846.3920574-1.7846271.5816522-2.6785508.0083615-.0411824.0012861-.0853625.0012861-.1514232-.1033782-.0143667-.2022499-.028092-.3412274-.0476098.0443961-.2170454.0883635-.4323759.1346904-.65865h1.8835022c-.05083.2331335-.0980144.4501788-.1509912.6938239-.3847628-.1243981-.430445.1220352-.4729103.3899106-.0405377.2571543-.10166.5110884-.1552783.7723204.2011732.0705572.3465879.0240209.484492-.1379074.2876091-.3375817.5940914-.6592914.9273827-1.0253971"/>
  <path class="cls-3" d="M25.6346869,6.6248831c-.0205879-.0045031-.0409631-.0085808-.0615543-.0128679-.2363471.4641201-.4729136.9282402-.7204137,1.4146598h.8956385c-.0388196-.4804176-.0765657-.941108-.1136705-1.4017919M24.7851593,6.472177h-.6084614c.1076653-.227341.1943139-.4240111.2951165-.6129645.022306-.0420333.0947974-.0817168.144554-.0821423.6513553-.0055765,1.3027107-.0036457,1.9755113-.0036457.0746382.720201.1475582,1.4189534.2189795,2.1179218.042894.4154303.0780679.8317247.1258936,1.2469456.0418238.3695354.0471843.368894.4195113.4298036-.0448248.2170454-.0887922.4332333-.1340457.6552137h-1.874496c.0392483-.2033201.0639139-.3980594.1213905-.5825097.0154434-.0497566.1312574-.0935047.2022499-.0956515.1539922-.0049351.1934532-.0615576.1728653-.2114688-.0295974-.2129742-.0347452-.4295942-.0519034-.6687296-.3995648,0-.7804659-.0023563-1.1611576.0030042-.0424653.0004254-.1033749.0336685-.1231087.0694904-.1357605.2481416-.274738.5329625-.419508.8130643.1411243.0150147.2522193-.0060019.3423008.0036457.0105083.0214486.0180157.0293814.017155.0358153q-.0877188.6427778-.7259902.6425619c-.3483028-.0004254-.7337136.0023628-1.0820164,0-.0163008-.0002094-.0319569-.0122199-.0733488-.0289494.0405344-.2056829.0892209-.4207974.1402636-.6766623.4926441.0274506.5183831-.0898656.7251328-.4958643.4066434-.7592366.8130676-1.5184666,1.2186376-2.2783446.0435387-.0819328.0806401-.1672888.1344744-.2805338"/>
  <path class="cls-3" d="M13.7188406,6.4755413c-.1323308-.0081488-.2258388-.0139413-.3476614-.0214486.0465396-.2262675.0894369-.4355961.1364052-.6625051h1.6299968c-.0489025.2239113-.0956548.4377364-.1471295.6751635-.3487348-.0870773-.394417.1428359-.445247.3911935-.1338297.6562871-.2608,1.3149371-.4267994,1.9632915-.2423556.9479674-.8952131,1.445972-1.8727812,1.4669952-.2174741.0045031-.4390258.0165135-.6519968-.017371-.8862036-.1409116-1.2379394-.6565031-1.0588529-1.5379909.133401-.6565031.2777423-1.3108594.4156463-1.9667146.0173742-.0830062.025523-.1683622.0405377-.2702382-.1117429-.0180189-.2028914-.0326016-.3227831-.0519034.0379622-.1842343.0654127-.3699674.119247-.5475517.0158721-.0525449.1053057-.1171002.1619282-.1179576.5563419-.0090062,1.1133286-.0053605,1.7022722-.0053605-.0514747.2406343-.0975856.4563968-.1458434.6811654-.1248235.0064339-.2359184.0122264-.3800437.0195178-.0486865.220475-.0997325.4456757-.1484157.6715113-.1153886.5359733-.2344196,1.0708666-.3427295,1.6079068-.0943687.4694806.1325436.7399348.6114623.7463687.5340392.0070754.864755-.2331335.9822872-.7485155.1707217-.7457207.3232118-1.4953032.4905005-2.2755564"/>
  <path class="cls-3" d="M29.691192,9.8846607c.4544659-.2991876.6794506-.7349997.6369853-1.2913416-.0411758-.5353253-.3873384-.8083518-.8465266-.9855041-.2751667-.1065951-.5632046-.1908842-.8188568-.3332946-.1205331-.0669116-.2494343-.249215-.2447152-.3744639.0051478-.1280437.1424104-.2972633.2672339-.3673951.4932888-.2764561,1.0151015-.0568385,1.2345097.5005768h.5363922c.0664927-.3054055.1413436-.6084548.1900268-.9157977.0090062-.0566225-.0802114-.1769364-.1394062-.1880894-.4752731-.0915804-.9533345-.2200496-1.4324692-.2271315-.5704959-.0087902-1.117619.1394062-1.5403439.5880862-.5657801.6003126-.3989201,1.5158943.3521645,1.848757.1825162.0808594.3751152.1387648.5567707.221123.18123.0821423.3671791.1645005.5278212.2788124.2067498.1467041.2290558.3753279.090291.5752183,0,0-.1304.1254715-.2483576.1627857l.328785.839448.5496953-.3317892Z"/>
  <path class="cls-3" d="M6.3315293,5.7726327c-.1027334.4917866-.1949553.9503302-.2996196,1.4056536-.0096509.0418238-.0997292.0862199-.1561357.0917964-.1374786.0132998-.2764561.0042937-.4394545.0042937v-.6831028h-.7515132c-.0521194.2427876-.1078812.5027302-.1640718.7626663-.1323308.612323-.2657351,1.2244301-.397634,1.8367531-.0690617.3217096-.0632692.328785.3051961.3631015-.0420365.2185442-.0836444.4340907-.1276118.6631465h-1.8807172c.0446121-.2217644.0866486-.4323759.1353351-.6745155.3894819.0815008.4355928-.1861651.4926441-.4681912.1672888-.8265801.3472326-1.650588.5280307-2.5039773-.2170454,0-.4158623-.0070754-.6136059.0047191-.054263.0032202-.1115269.0572639-.1552783.1003772-.0283113.028092-.0353899.0780646-.0516874.118383q-.2063243.5121618-.8001997.4636946c.0602666-.2959739.1164587-.5891596.1797279-.8810558q.1304-.6041743.745508-.6039583c1.0455563.000216,2.0915414.000216,3.1373137.000216h.3137736Z"/>
  <path class="cls-3" d="M33.3593639,9.5734365c-.0428972.209754-.0855719.419508-.1310414.6429873h-1.877929c.0441801-.220907.0860039-.4310865.1340457-.6732261.3877703.0802114.4364535-.1848757.493292-.4679818.1668568-.8265801.3470134-1.650372.5282434-2.5050441-.2166199,0-.4156463-.0094382-.612323.005786-.0587628.0047191-.119247.0718532-.1647099.1228992-.0323856.0368887-.0407504.0947941-.0602682.1432679-.1964607.4941429-.2149051.5040065-.7836829.3978434.0943687-.4493214.1842277-.8995002.289324-1.3464588.0115785-.0501886.1072365-.1153919.1645005-.1153919,1.2808301-.0047125,2.5618761-.0014989,3.8424967.0015054.0156561,0,.0311028.0141573.0716372.0336685-.0941527.4506108-.1861651.9087224-.2910454,1.3638363-.0096476.0422493-.0992972.0872933-.1552783.0928698-.1372594.0132933-.2766656.0045031-.4400927.0045031v-.6828803h-.7519452c-.0838571.3862649-.1726493.7901168-.2595106,1.1946101-.0969409.4506108-.1902428.9022885-.2884666,1.3528992-.07957.3643909-.0817168.3637429.2927537.4343067"/>
  <path class="cls-3" d="M18.265136,8.9883349c-.0752796.351307-.1439126.6895302-.2239113,1.0251811-.010721.0452535-.0729201.0999452-.1205331.1115237-.6998258.170509-1.407159.2586597-2.1170644.080218-.7141958-.1792992-1.0318278-.6391322-1.0423394-1.4830833-.0068626-.5842245.1237534-1.139925.402353-1.65659.4823485-.8947811,1.2555263-1.3408888,2.2491792-1.3676979.495861-.0135093.994939.0853625,1.523189.1366245-.0920091.4392352-.1677207.8019113-.2462173,1.1774552h-.6035263c-.2520065-.7283498-1.0691485-.6384842-1.4672112-.2481481-.6011667.590017-.8126389,1.338742-.6665827,2.1541691.1113142.6191824,1.0213227.8405214,1.4386872.3369403.2582245-.3114206.524385-.2921122.8739772-.2665925"/>
</svg>